<svg width="42" height="27" viewBox="0 0 42 27" fill="none" xmlns="http://www.w3.org/2000/svg">
<path fill-rule="evenodd" clip-rule="evenodd" d="M29.0352 7.42004C30.7136 6.01977 32.586 5.48702 34.3818 5.62171C36.2974 5.76537 38.0699 6.66327 39.394 7.96747C40.7177 9.27175 41.6272 11.0163 41.7729 12.8991C41.9197 14.799 41.2836 16.7889 39.6064 18.5352C39.4531 18.6961 39.2963 18.8548 39.1362 19.0115C31.5289 26.5051 21.4239 26.525 21.3205 26.525H21.32C21.2684 26.525 11.1313 26.5246 3.50438 19.0107L3.50274 19.0088C3.34527 18.8529 3.19021 18.6957 3.03748 18.5379L3.03626 18.5363C1.3583 16.7915 0.721546 14.8021 0.867986 12.9022C1.01309 11.0197 1.92198 9.27499 3.24547 7.97026C4.56886 6.6656 6.34132 5.76697 8.25722 5.62271C10.0529 5.48748 11.9257 6.01958 13.6049 7.41916C13.7855 5.26049 14.7262 3.58043 16.0917 2.42542C17.548 1.19352 19.4459 0.592773 21.3201 0.592773C23.1942 0.592773 25.0921 1.19352 26.5484 2.42542C27.914 3.58058 28.8548 5.26095 29.0352 7.42004ZM21.6683 25.7653L21.668 25.7558H21.6686L21.6683 25.7653ZM20.9719 25.7653L20.9716 25.7558H20.9722L20.9719 25.7653ZM27.0354 15.3598C26.8272 15.3598 26.7551 15.6559 26.8878 15.8128C27.1227 16.0906 27.2642 16.448 27.2642 16.838C27.2642 17.7229 26.5362 18.4402 25.6381 18.4402C24.7398 18.4402 24.0116 17.7229 24.0116 16.838C24.0116 16.7907 23.9489 16.7671 23.9206 16.8055C23.6641 17.1526 23.4909 17.5422 23.4198 17.9513C23.3797 18.1817 23.1897 18.3727 22.9508 18.3727H22.8189C22.5072 18.3727 22.25 18.1236 22.296 17.8219C22.6114 15.7546 24.6795 14.2552 27.0354 14.2552C29.391 14.2552 31.4591 15.7546 31.7745 17.8219C31.8202 18.1236 31.5632 18.3727 31.2516 18.3727C30.9397 18.3727 30.693 18.1223 30.6251 17.8246C30.3169 16.4695 28.8876 15.3598 27.0354 15.3598ZM12.5933 16.838C12.5933 16.7756 12.5112 16.7421 12.4725 16.7917C12.1983 17.1442 12.0115 17.5434 11.9324 17.9641C11.8857 18.2126 11.6805 18.4193 11.4223 18.4193H11.3255C11.0138 18.4193 10.7566 18.1702 10.8026 17.8686C11.1178 15.8001 13.1862 14.3019 15.5418 14.3019C17.8974 14.3019 19.9658 15.8001 20.281 17.8686C20.327 18.1702 20.0698 18.4193 19.7581 18.4193C19.4464 18.4193 19.1995 18.1691 19.1318 17.8713C18.8237 16.5154 17.3944 15.4064 15.5418 15.4064C15.3734 15.4064 15.3118 15.6394 15.4245 15.7617C15.6864 16.0462 15.846 16.4237 15.846 16.838C15.846 17.7229 15.1179 18.4402 14.2197 18.4402C13.3215 18.4402 12.5933 17.7229 12.5933 16.838ZM23.1293 20.7021C23.3496 20.4862 23.6901 20.3813 23.9636 20.5274C24.2372 20.6738 24.3409 21.0132 24.1438 21.2497C23.5018 22.0189 22.4622 22.5066 21.3157 22.5066C20.1698 22.5066 19.128 22.0242 18.4851 21.2489C18.2887 21.0121 18.3937 20.6727 18.6678 20.5274C18.9419 20.3821 19.2818 20.4885 19.5018 20.7043C19.9256 21.1208 20.5687 21.4022 21.3157 21.4022C22.0608 21.4022 22.7046 21.1177 23.1293 20.7021Z" fill="white"/>
</svg>
